<svg xmlns="http://www.w3.org/2000/svg" viewBox="0 0 64 64" aria-labelledby="title"><title id="image-icon">image icon</title><path fill="#e4e4e4" d="M3 64h58c1.654 0 3-1.346 3-3v-58c0-1.654-1.346-3-3-3h-58c-1.654 0-3 1.346-3 3v58c0 1.654 1.346 3 3 3zM2 3c0-0.552 0.45-1 1-1h58c0.55 0 1 0.448 1 1v58c0 0.552-0.45 1-1 1h-58c-0.55 0-1-0.448-1-1v-58zM41 25c2.206 0 4-1.794 4-4s-1.794-4-4-4-4 1.794-4 4 1.794 4 4 4zM41 19c1.104 0 2 0.898 2 2s-0.896 2-2 2-2-0.898-2-2 0.896-2 2-2zM9 50h46c0.552 0 1-0.448 1-1v-40c0-0.552-0.448-1-1-1h-46c-0.552 0-1 0.448-1 1v40c0 0.552 0.448 1 1 1zM10 48v-11.276c0.044-0.032 0.094-0.050 0.134-0.090l10.232-10.232c0.52-0.52 1.424-0.518 1.944 0l15.042 15.042c0.196 0.196 0.452 0.292 0.708 0.292 0.248 0 0.496-0.092 0.69-0.276l7.732-7.344c0.26-0.26 0.606-0.404 0.972-0.404 0.368 0 0.71 0.144 0.942 0.374l5.604 6.104c0 0 0.002 0 0.002 0.002v7.808h-44.002zM54 10v27.236l-4.162-4.532c-0.634-0.638-1.482-0.99-2.382-0.99-0.002 0-0.002 0-0.002 0-0.902 0-1.75 0.352-2.37 0.972l-7.008 6.656-14.352-14.354c-1.278-1.276-3.498-1.274-4.772 0l-8.952 8.954v-23.942h44z"></path></svg>
